<?xml version="1.0" encoding="UTF-8" standalone="no"?>
<svg
   xmlns:dc="http://purl.org/dc/elements/1.1/"
   xmlns:cc="http://creativecommons.org/ns#"
   xmlns:rdf="http://www.w3.org/1999/02/22-rdf-syntax-ns#"
   xmlns:svg="http://www.w3.org/2000/svg"
   xmlns="http://www.w3.org/2000/svg"
   viewBox="0 0 58.853333 58.866669"
   height="58.866669"
   width="58.853333"
   xml:space="preserve"
   id="svg2"
   version="1.1"><metadata
     id="metadata8"><rdf:RDF><cc:Work
         rdf:about=""><dc:format>image/svg+xml</dc:format><dc:type
           rdf:resource="http://purl.org/dc/dcmitype/StillImage" /></cc:Work></rdf:RDF></metadata><defs
     id="defs6" /><g
     transform="matrix(1.3333333,0,0,-1.3333333,0,58.866667)"
     id="g10"><g
       transform="scale(0.1)"
       id="g12"><path
         id="path14"
         style="fill:#231f20;fill-opacity:1;fill-rule:nonzero;stroke:none"
         d="m 427.273,37.0117 c 0,-12.5586 -10.312,-22.8398 -22.906,-22.8398 H 37.1484 c -12.5937,0 -22.9765,10.2812 -22.9765,22.8398 V 404.438 c 0,12.597 10.3828,22.843 22.9765,22.843 H 404.367 c 12.594,0 22.906,-10.246 22.906,-22.843 V 37.0117" /><path
         id="path16"
         style="fill:none;stroke:#ffffff;stroke-width:28.3465004;stroke-linecap:butt;stroke-linejoin:miter;stroke-miterlimit:10;stroke-dasharray:none;stroke-opacity:1"
         d="m 427.273,37.0117 c 0,-12.5586 -10.312,-22.8398 -22.906,-22.8398 H 37.1484 c -12.5937,0 -22.9765,10.2812 -22.9765,22.8398 V 404.438 c 0,12.597 10.3828,22.843 22.9765,22.843 H 404.367 c 12.594,0 22.906,-10.246 22.906,-22.843 z" /><path
         id="path18"
         style="fill:#ffffff;fill-opacity:1;fill-rule:nonzero;stroke:none"
         d="m 61.8086,212.207 -11.6875,-52.496 347.5199,-9.59 v 66.207" /><path
         id="path20"
         style="fill:#ffffff;fill-opacity:1;fill-rule:nonzero;stroke:none"
         d="m 48.7031,160.668 15.4336,53.703 333.5043,1.957 V 150.121 L 48.7031,160.668" /><path
         id="path22"
         style="fill:#231f20;fill-opacity:1;fill-rule:nonzero;stroke:none"
         d="m 164.184,176.387 c 0,-5.5 -4.5,-10 -10,-10 h -48.899 c -5.4998,0 -9.9998,4.5 -9.9998,10 v 21.148 c 0,5.5 4.5,10 9.9998,10 h 48.899 c 5.5,0 10,-4.5 10,-10 v -21.148" /><path
         id="path24"
         style="fill:#231f20;fill-opacity:1;fill-rule:nonzero;stroke:none"
         d="m 240.07,176.387 c 0,-5.5 -4.5,-10 -10,-10 h -48.898 c -5.5,0 -10,4.5 -10,10 v 21.148 c 0,5.5 4.5,10 10,10 h 48.898 c 5.5,0 10,-4.5 10,-10 v -21.148" /><path
         id="path26"
         style="fill:#231f20;fill-opacity:1;fill-rule:nonzero;stroke:none"
         d="m 315.957,176.387 c 0,-5.5 -4.5,-10 -10,-10 h -48.898 c -5.5,0 -10,4.5 -10,10 v 21.148 c 0,5.5 4.5,10 10,10 h 48.898 c 5.5,0 10,-4.5 10,-10 v -21.148" /><path
         id="path28"
         style="fill:#231f20;fill-opacity:1;fill-rule:nonzero;stroke:none"
         d="m 391.844,176.387 c 0,-5.5 -4.5,-10 -10,-10 h -48.903 c -5.5,0 -10,4.5 -10,10 v 21.148 c 0,5.5 4.5,10 10,10 h 48.903 c 5.5,0 10,-4.5 10,-10 v -21.148" /><path
         id="path30"
         style="fill:#ffffff;fill-opacity:1;fill-rule:nonzero;stroke:none"
         d="m 386.301,225.121 c -6.238,0 -17.723,0 -25.52,0 H 93.7578 c -7.793,0 -19.2773,0 -25.5156,0 -6.2383,0 -11.3399,-3.957 -11.3399,-8.793 0,-4.836 5.1016,-8.793 11.3399,-8.793 6.2383,0 17.7226,0 25.5156,0 H 360.781 c 7.797,0 19.282,0 25.52,0 6.238,0 11.34,3.957 11.34,8.793 0,4.836 -5.102,8.793 -11.34,8.793" /><path
         id="path32"
         style="fill:#ffffff;fill-opacity:1;fill-rule:nonzero;stroke:none"
         d="m 56.9023,207.535 h 16.211 v 17.586 h -16.211 v -17.586" /><path
         id="path34"
         style="fill:#231f20;fill-opacity:1;fill-rule:nonzero;stroke:none"
         d="m 74.5039,207.535 c -5.5,0 -10.8203,-4.426 -11.8164,-9.836 l -3.9687,-21.476 c -1,-5.41 2.6835,-9.836 8.1835,-9.836 h 12.129 c 5.5,0 10,4.5 10,10 v 21.148 c 0,5.5 -4.5,10 -10,10 h -4.5274" /><path
         id="path36"
         style="fill:#ffffff;fill-opacity:1;fill-rule:nonzero;stroke:none"
         d="m 145.75,121.691 c 0,-10.957 -8.887,-19.843 -19.844,-19.843 -10.957,0 -19.843,8.886 -19.843,19.843 0,10.961 8.886,19.844 19.843,19.844 10.957,0 19.844,-8.883 19.844,-19.844" /><path
         id="path38"
         style="fill:#ffffff;fill-opacity:1;fill-rule:nonzero;stroke:none"
         d="m 329.477,121.691 c 0,-10.957 -8.883,-19.843 -19.84,-19.843 -10.961,0 -19.844,8.886 -19.844,19.843 0,10.961 8.883,19.844 19.844,19.844 10.957,0 19.84,-8.883 19.84,-19.844" /><path
         id="path40"
         style="fill:#ffffff;fill-opacity:1;fill-rule:nonzero;stroke:none"
         d="m 57.1836,169.102 c -7.793,0 -14.1719,-6.379 -14.1719,-14.172 v -26.746 c 0,-7.797 6.3789,-14.172 14.1719,-14.172 h 30.2187 c 7.793,0 13.6407,2.25 12.9927,5.004 0,0 0,0 0,2.675 0,14.09 11.421,25.512 25.511,25.512 14.09,0 25.512,-11.422 25.512,-25.512 0,-2.675 0,-2.675 0,-2.675 -0.648,-2.754 5.199,-5.004 12.992,-5.004 h 106.719 c 7.797,0 13.644,2.25 12.992,5.004 0,0 0,0 0,2.675 0,14.09 11.426,25.512 25.516,25.512 14.09,0 25.511,-11.422 25.511,-25.512 0,-2.675 0,-2.675 0,-2.675 -0.652,-2.754 5.196,-5.004 12.993,-5.004 h 35.328 c 7.797,0 14.172,6.375 14.172,14.172 v 26.746 c 0,7.793 -6.375,14.172 -14.172,14.172 H 57.1836" /><g
         transform="scale(10)"
         id="g42"><text
           id="text46"
           style="font-variant:normal;font-weight:bold;font-size:10px;font-family:OpenSans;-inkscape-font-specification:OpenSans-Bold;writing-mode:lr-tb;fill:#ffffff;fill-opacity:1;fill-rule:nonzero;stroke:none"
           transform="matrix(1,0,0,-1,5.55664,30.048)"><tspan
             id="tspan44"
             y="0"
             x="0">P</tspan></text>
<text
           id="text50"
           style="font-variant:normal;font-weight:bold;font-size:4px;font-family:OpenSans;-inkscape-font-specification:OpenSans-Bold;writing-mode:lr-tb;fill:#ffffff;fill-opacity:1;fill-rule:nonzero;stroke:none"
           transform="matrix(1,0,0,-1,11.83594,30.048)"><tspan
             id="tspan48"
             y="0"
             x="0 2.688 5.316 7.3039999 9.8360004 12.252 14.068 16.548 18.912001 20.728001 21.948 24.576">Busparkering</tspan></text>
</g></g></g></svg>